# xmcd
#
# Track frame offsets:
# 182
# 23247
# 37522
# 62217
# 87212
# 106372
# 124032
# 172992
# 200235
# 212422
# 239322
# 264495
#
# Disc length: 3573 seconds
#
#
# Revision: 0
# Processed by: cddbd v1.5.2PL0 Copyright (c) Steve Scherf et al.
# Submitted via: FreeRIP 2.951 
#
DISCID=9b0df30c
DTITLE=Eric Burdon and The Animals - Live at the LONDON MARQUEE CLUB
DYEAR=1967
DGENRE=Blues
TTITLE0=Every Day (I have the Blues)
TTITLE1=All Night
TTITLE2=Tobacco Road
TTITLE3=I´m experienced
TTITLE4=S. Francisco Night
TTITLE5=Good Times
TTITLE6=Hey Gyp
TTITLE7=Ginhouse Blues
TTITLE8=When I was young
TTITLE9=Paint it black
TTITLE10=The House of the Rising Sun
TTITLE11=So long
EXTD=Live at the LONDON MARQUEE CLUB, Aug. 8, 1967.
EXTT0=
EXTT1=
EXTT2=
EXTT3=
EXTT4=
EXTT5=
EXTT6=
EXTT7=
EXTT8=
EXTT9=
EXTT10=
EXTT11=
PLAYORDER=
